<?xml version="1.0" encoding="iso-8859-1"?>
<!-- Generator: Adobe Illustrator 19.0.0, SVG Export Plug-In . SVG Version: 6.00 Build 0)  -->
<svg xmlns="http://www.w3.org/2000/svg" xmlns:xlink="http://www.w3.org/1999/xlink" version="1.1" id="Capa_1" x="0px" y="0px" viewBox="0 0 512.002 512.002" style="enable-background:new 0 0 512.002 512.002;" xml:space="preserve" width="512px" height="512px">
<g>
	<g>
		<g>
			<path d="M481.2,393.883c-0.377-0.506-0.81-0.966-1.291-1.374c-0.07-0.053-0.102-0.134-0.174-0.185     c-0.89-0.366-1.758-0.784-2.6-1.25l-23.412-6.717c26.92-37.373,41.344-82.296,41.212-128.354     c-0.388-82.284-46.003-157.685-118.706-196.221l8.615-25.75c0.081-0.398,0.132-0.802,0.151-1.208     c0.127-0.554,0.198-1.119,0.211-1.688c-0.032-0.545-0.119-1.086-0.258-1.614c-0.093-0.524-0.235-1.039-0.425-1.536     c-0.235-0.495-0.519-0.966-0.847-1.405c-0.282-0.454-0.609-0.878-0.974-1.268c-0.419-0.38-0.876-0.717-1.362-1.005     c-0.31-0.267-0.64-0.51-0.987-0.727c-10.11-4.669-20.517-8.667-31.153-11.968c-0.104-0.04-0.174-0.126-0.28-0.161     c-0.134-0.044-0.27-0.012-0.405-0.049c-77.657-23.989-162.093-9.662-227.491,38.6s-103.982,124.721-103.954,206     c-0.254,71.333,29.536,139.477,82.071,187.733H76.801c-14.132,0.015-25.585,11.468-25.6,25.6v17.067     c0.015,14.132,11.468,25.585,25.6,25.6h358.4c14.132-0.015,25.585-11.468,25.6-25.6v-17.067     c-0.015-10.37-6.279-19.708-15.869-23.655c13.73-12.454,26.075-26.355,36.819-41.461l0.009-0.018     c0.556-0.783,0.976-1.654,1.242-2.578c0.025-0.089-0.002-0.177,0.021-0.266c0.114-0.596,0.161-1.203,0.142-1.809     c-0.021-1.578-0.375-3.133-1.038-4.565C481.849,394.592,481.538,394.224,481.2,393.883z M477.868,256.002     c0.128,44.582-14.511,87.952-41.631,123.336l-104.051-29.853c0.961-6.973,0.715-14.06-0.726-20.95     c-3.848-17.599-15.453-32.511-31.569-40.563l70.854-211.799C436.491,112.183,477.51,181.042,477.868,256.002z M306.201,368.219     c-9.72,11.99-25.162,17.789-40.372,15.161s-27.811-13.272-32.945-27.828c-1.205-3.407-4.428-5.684-8.042-5.683h-28.575     c-4.713,0-8.533-3.82-8.533-8.533s3.82-8.533,8.533-8.533h28.575c3.613-0.001,6.835-2.277,8.042-5.683     c7.115-20.192,28.094-31.982,49.042-27.563c1.555,0.337,3.089,0.766,4.594,1.284l0.056,0.032l0.144,0.023     c14.184,4.703,24.84,16.534,28.04,31.131C317.525,344.765,314.379,358.069,306.201,368.219z M351.588,30.35     c4.913,1.721,9.77,3.637,14.584,5.691l-82.492,246.594c-5.368-0.918-10.835-1.118-16.256-0.595L351.588,30.35z M47.273,177.807     C80.581,81.575,171.235,17.041,273.068,17.069c21.01-0.023,41.93,2.738,62.215,8.212l-87.634,262.096     c-12.527,5.829-22.616,15.863-28.514,28.359h-22.867c-14.138,0-25.6,11.462-25.6,25.6c0,14.138,11.461,25.6,25.6,25.6h22.883     c14.121,29.782,49.701,42.493,79.496,28.398l134.059,38.446c-3.852,3.467-7.857,6.752-11.927,9.956H125.391     C45.329,380.806,13.966,274.039,47.273,177.807z M443.735,486.402c-0.005,4.711-3.822,8.529-8.533,8.533h-358.4     c-4.711-0.005-8.529-3.822-8.533-8.533v-17.067c0.005-4.711,3.822-8.529,8.533-8.533h358.4c4.711,0.005,8.529,3.822,8.533,8.533     V486.402z M446.685,420.034l-130.529-37.432c1.126-1.177,2.258-2.347,3.295-3.625c3.22-4.002,5.907-8.405,7.993-13.099     l109.203,31.331c0.124,0.045,0.249,0.069,0.375,0.108l23.379,6.707C456.035,409.561,451.493,414.93,446.685,420.034z" fill="#FFFFFF"/>
			<path d="M273.068,315.736c-14.138,0-25.6,11.462-25.6,25.6c0.015,14.132,11.468,25.585,25.6,25.6c14.138,0,25.6-11.462,25.6-25.6     C298.668,327.197,287.207,315.736,273.068,315.736z M273.068,349.869c-4.713,0-8.533-3.82-8.533-8.533     c0.005-4.711,3.822-8.529,8.533-8.533c4.713,0,8.533,3.821,8.533,8.533S277.781,349.869,273.068,349.869z" fill="#FFFFFF"/>
			<path d="M391.585,207.919L391.585,207.919c4.84,2.522,10.209,3.864,15.667,3.916c4.37,0.025,8.687-0.956,12.617-2.867     c8.827-4.635,14.938-13.175,16.475-23.025c3.271-21.185-7.028-42.16-25.792-52.525c-8.655-5.076-19.281-5.47-28.288-1.047     c-9.007,4.422-15.194,13.07-16.47,23.023C362.522,176.579,372.821,197.554,391.585,207.919z M382.568,158.573L382.568,158.573     c0.6-4.546,3.262-8.561,7.217-10.883c1.59-0.768,3.335-1.16,5.1-1.146c2.767,0.079,5.478,0.794,7.925,2.087     c12.003,6.915,18.628,20.407,16.758,34.133c-0.265,4.664-3.024,8.824-7.217,10.883c-4.193,2.06-9.171,1.7-13.025-0.942     C387.323,185.791,380.699,172.299,382.568,158.573z" fill="#FFFFFF"/>
			<path d="M428.201,231.427c-14.443,5.107-22.11,20.863-17.217,35.379c2.73,12.821,13.645,22.268,26.725,23.129     c1.893,0.001,3.777-0.241,5.608-0.721c14.441-5.103,22.106-20.859,17.208-35.371c-1.792-7.166-5.957-13.515-11.817-18.013     C442.9,231.318,435.352,229.697,428.201,231.427z M438.518,249.519L438.518,249.519c2.74,2.19,4.672,5.231,5.492,8.642     c1.725,6.596-0.617,13.392-5.008,14.546c-4.383,1.142-9.775-3.629-11.5-10.217c-1.725-6.604,0.617-13.4,5.017-14.55     c0.441-0.115,0.895-0.172,1.35-0.171C435.562,247.855,437.188,248.466,438.518,249.519z" fill="#FFFFFF"/>
		</g>
	</g>
</g>
<g>
</g>
<g>
</g>
<g>
</g>
<g>
</g>
<g>
</g>
<g>
</g>
<g>
</g>
<g>
</g>
<g>
</g>
<g>
</g>
<g>
</g>
<g>
</g>
<g>
</g>
<g>
</g>
<g>
</g>
</svg>
